<svg width="232" height="40" viewBox="0 0 232 40" fill="none" xmlns="http://www.w3.org/2000/svg">
<g clip-path="url(#clip0_7_5950)">
<path d="M45.1934 29.6026L44.604 29.4454L43.5255 29.1652L5.94803 19.7368L0.563633 18.3671L-0.00775146 18.2256C0.0780419 18.519 0.163835 18.8097 0.249629 19.0978C0.800422 21.1327 1.33063 23.0551 1.94319 24.9696C2.50171 26.7112 3.71654 27.874 5.54651 28.424L5.64947 28.4528C6.34439 28.6623 7.06248 28.8771 7.76513 29.0552C20.7319 32.3167 33.7005 35.5748 46.6707 38.8293C48.1223 39.1934 49.574 39.5522 51.0462 39.9162L51.3885 40C51.3319 39.7983 51.2727 39.5993 51.2135 39.3976C50.6987 37.5984 50.184 35.896 49.7567 34.1413C49.1519 31.6925 47.6977 30.2468 45.1805 29.5895" fill="#097CBB"/>
<path d="M8.07656 13.0845C8.8487 13.2941 9.62084 13.5062 10.393 13.6843C19.7359 15.8423 29.0788 17.9978 38.4217 20.1506L38.5298 20.1742C39.8965 20.4885 41.4073 20.8368 42.5629 21.9891L42.7174 21.8163C43.595 20.8394 44.4238 19.9175 45.2371 18.9773C45.4673 18.6862 45.665 18.37 45.8265 18.0344C46.5575 16.6569 46.7119 15.3238 46.2718 14.174C45.8317 13.0243 44.8304 12.1469 43.3737 11.6336C42.8402 11.4599 42.2981 11.3148 41.7496 11.1989L41.5283 11.1491C31.2622 8.77453 20.997 6.40259 10.7327 4.03327C8.31849 3.47804 5.91199 2.92543 3.45143 2.36497L1.77332 1.98521C1.87369 2.33092 1.97407 2.67663 2.07188 3.03281C2.67672 5.12801 3.2481 7.10798 3.87354 9.08794C4.54787 11.1831 5.91199 12.4953 8.07656 13.0845Z" fill="#097CBB"/>
<path d="M34.265 0.508073C34.4503 1.79138 34.5738 2.63732 34.7978 2.89398C35.0217 3.15064 35.8273 3.33659 36.9675 3.60897L43.7469 5.24585L44.9282 5.50775C44.9481 5.51384 44.9693 5.51413 44.9893 5.50857C45.0093 5.50301 45.0274 5.49183 45.0415 5.47632C45.0563 5.46217 45.0672 5.44433 45.073 5.42456C45.0789 5.4048 45.0796 5.38381 45.075 5.3637L43.9013 0.115222L37.6135 0.0418904H35.9817L35.5699 0.0261764C35.1318 -0.00700284 34.6916 9.45432e-06 34.2547 0.0471284C34.2405 0.188184 34.2405 0.330351 34.2547 0.471407L34.265 0.508073Z" fill="#097CBB"/>
<path d="M64.7517 40V3.74517C64.7517 2.75397 65.1387 1.80337 65.8275 1.10249C66.5162 0.401609 67.4504 0.00785732 68.4245 0.00785732H89.9415V40H82.3848V7.07916H72.3161V40H64.7517Z" fill="#097CBB"/>
<path d="M116.585 40H98.2909V3.74517C98.2909 2.75397 98.6778 1.80337 99.3666 1.10249C100.055 0.401609 100.99 0.00785732 101.964 0.00785732H116.585V6.95345H105.848V15.7481H115.831V22.6936H105.848V33.0073H116.585V40Z" fill="#097CBB"/>
<path d="M136.496 40H128.94V7.07916H120.868V3.74517C120.868 3.25416 120.963 2.76796 121.148 2.31436C121.333 1.86076 121.604 1.44864 121.945 1.10156C122.286 0.754489 122.691 0.479255 123.137 0.291591C123.583 0.103928 124.061 0.0075132 124.544 0.00785729H144.565V7.07916H136.496V40Z" fill="#097CBB"/>
<path d="M160.613 0.00785732C164.625 0.00785732 167.587 1.11919 169.5 3.34185C171.413 5.5645 172.369 8.62001 172.367 12.5083C172.383 14.7347 172.004 16.9456 171.248 19.0349C170.537 21.0245 169.232 22.7379 167.516 23.9351C165.776 25.1695 163.397 25.7858 160.379 25.7841H157.766V40H150.21V3.74517C150.21 2.75397 150.597 1.80337 151.285 1.10249C151.974 0.401609 152.908 0.00785732 153.882 0.00785732H160.613ZM160.379 6.95345H157.766V18.828H159.679C160.602 18.8453 161.515 18.6341 162.34 18.2125C163.139 17.7751 163.777 17.0847 164.157 16.2457C164.595 15.35 164.812 14.1924 164.811 12.7729C164.811 10.7964 164.445 9.33063 163.714 8.37557C162.983 7.4205 161.868 6.94472 160.368 6.94821" fill="#097CBB"/>
<path d="M195.305 27.9552C194.57 30.2125 193.631 32.3956 192.5 34.4765C191.599 36.1617 190.282 37.5795 188.68 38.591C187.146 39.5303 185.122 40 182.606 40C180.861 39.9676 179.128 39.6891 177.458 39.1724V31.7685C178.213 32.1484 179.019 32.4132 179.849 32.5542C180.64 32.6967 181.441 32.7712 182.243 32.7768C183.03 32.8023 183.809 32.6114 184.498 32.2242C185.106 31.8596 185.626 31.3589 186.016 30.7602C186.431 30.1185 186.756 29.4213 186.982 28.6885L177.945 5.02324C177.733 4.4649 177.658 3.8625 177.726 3.26805C177.794 2.67359 178.004 2.10495 178.336 1.61123C178.669 1.1175 179.114 0.713525 179.634 0.43418C180.154 0.154835 180.734 0.00851625 181.322 0.00785732L183.986 0.00785732L189.002 14.9807C189.369 16.0492 189.691 17.0968 189.967 18.1235C190.243 19.1501 190.473 20.1829 190.657 21.2218H190.889C191.101 20.2265 191.354 19.1789 191.648 18.079C191.941 16.979 192.24 15.9113 192.543 14.8759L197.053 0.00785732H204.867L195.305 27.9552Z" fill="#097CBB"/>
<path d="M222.14 6.87226C221.092 6.85916 220.068 7.1837 219.213 7.79939C218.287 8.49312 217.533 9.39819 217.013 10.442C216.353 11.753 215.893 13.1591 215.651 14.6114C215.334 16.4266 215.183 18.2677 215.198 20.1113C215.198 22.8717 215.456 25.2236 215.97 27.1669C216.485 29.1102 217.271 30.5943 218.328 31.6192C219.388 32.6389 220.735 33.1478 222.369 33.1461C223.665 33.1472 224.955 32.9639 226.201 32.6013C227.549 32.2039 228.862 31.6932 230.126 31.0744V37.9834C228.845 38.6536 227.489 39.1654 226.088 39.5076C224.629 39.8455 223.136 40.0099 221.64 39.9974C218.406 39.9974 215.759 39.1715 213.7 37.5198C211.641 35.8681 210.121 33.5442 209.139 30.548C208.156 27.5519 207.665 24.0599 207.665 20.072C207.639 17.3447 207.96 14.6255 208.619 11.9819C209.173 9.71029 210.126 7.55943 211.433 5.63347C212.609 3.90284 214.171 2.4796 215.991 1.47974C217.903 0.471057 220.033 -0.0349243 222.186 0.00785713C223.808 0.0246335 225.419 0.272351 226.973 0.743796C228.523 1.17539 229.998 1.84576 231.349 2.73162L229.032 9.43364C227.945 8.76118 226.816 8.16104 225.653 7.63701C224.546 7.13415 223.347 6.87361 222.135 6.87226" fill="#097CBB"/>
</g>
<defs>
<clipPath id="clip0_7_5950">
<rect width="231.351" height="40" fill="white"/>
</clipPath>
</defs>
</svg>
