<svg width="829.585449" height="820.309326" viewBox="0 0 829.585 820.309" fill="none" xmlns="http://www.w3.org/2000/svg" xmlns:xlink="http://www.w3.org/1999/xlink">
	<desc>
			Created with Pixso.
	</desc>
	<defs/>
	<path id="Многоугольник 1" d="M290.87 203.7L218.09 552.8C208.77 597.52 251.61 635.41 294.85 620.69L638.25 503.84C681.5 489.12 692.33 432.96 657.67 403.21L387.06 170.97C352.98 141.73 300.04 159.75 290.87 203.7Z" fill="#097CBB" fill-opacity="1.000000" fill-rule="evenodd"/>
	<circle id="Эллипс 1" cx="496.000000" cy="325.000000" r="256.000000" fill="#097CBB" fill-opacity="1.000000"/>
	<path id="path" d="M620.62 392.26L616.86 391.16L609.97 389.2L370.03 323.24L335.64 313.66L332 312.67C332.54 314.72 333.09 316.75 333.64 318.77C337.16 333 340.54 346.45 344.45 359.84C348.02 372.03 355.78 380.16 367.46 384.01L368.12 384.21C372.56 385.68 377.14 387.18 381.63 388.43C464.43 411.24 547.23 434.03 630.05 456.8C639.32 459.35 648.59 461.86 657.99 464.4L660.18 464.99C659.82 463.58 659.44 462.19 659.06 460.78C655.77 448.19 652.49 436.28 649.76 424.01C645.9 406.88 636.69 396.85 620.62 392.26Z" fill="#FFFFFF" fill-opacity="1.000000" fill-rule="nonzero"/>
	<path id="path" d="M383.64 276.49C388.57 277.96 393.5 279.44 398.43 280.69C458.09 295.78 517.74 310.86 577.4 325.92L578.09 326.09C586.82 328.28 596.47 330.72 603.84 338.78L604.83 337.57C610.43 330.74 615.73 324.29 620.92 317.71C622.39 315.68 623.65 313.46 624.68 311.12C629.35 301.48 630.34 292.15 627.53 284.11C624.72 276.07 618.32 269.93 609.02 266.34C605.62 265.12 602.15 264.11 598.65 263.3L597.24 262.95C531.69 246.34 466.14 229.75 400.6 213.17C385.18 209.29 369.82 205.42 354.1 201.5L343.39 198.84C344.03 201.26 344.67 203.68 345.29 206.17C349.16 220.83 352.81 234.68 356.8 248.53C361.11 263.19 369.82 272.37 383.64 276.49Z" fill="#FFFFFF" fill-opacity="1.000000" fill-rule="nonzero"/>
	<path id="path" d="M552.25 185C552.19 186.01 552.21 187.42 552.28 188.25L552.35 188.51C553.53 197.49 554.32 203.41 555.75 205.2C557.14 206.94 562.02 208.22 568.95 210.03L569.61 210.2L612.89 221.65L620.44 223.49C620.56 223.53 620.7 223.53 620.83 223.49C620.95 223.45 621.07 223.37 621.16 223.27C621.25 223.17 621.32 223.04 621.36 222.9C621.4 222.77 621.4 222.62 621.37 222.48L613.04 185L552.25 185Z" fill="#FFFFFF" fill-opacity="1.000000" fill-rule="nonzero"/>
</svg>
