<svg width="285.000000" height="50.000000" viewBox="0 0 285 50" fill="none" xmlns="http://www.w3.org/2000/svg" xmlns:xlink="http://www.w3.org/1999/xlink">
	<desc>
			Created with Pixso.
	</desc>
	<defs>
		<clipPath id="clip9_34">
			<rect id="logo" width="285.000000" height="50.000000" fill="white" fill-opacity="0"/>
		</clipPath>
	</defs>
	<g clip-path="url(#clip9_34)">
		<mask id="mask9_36" mask-type="alpha" maskUnits="userSpaceOnUse" x="0.000000" y="0.000000" width="284.202728" height="50.000000">
			<rect id="rect" width="284.202728" height="50.000000" fill="#000000" fill-opacity="1.000000"/>
		</mask>
		<g mask="url(#mask9_36)">
			<path id="path" d="M55.51 37L54.79 36.8L53.46 36.45L7.3 24.67L0.69 22.95L-0.01 22.78C0.09 23.14 0.2 23.51 0.3 23.87C0.98 26.41 1.63 28.81 2.38 31.21C3.07 33.38 4.56 34.84 6.81 35.53L6.94 35.56C7.79 35.82 8.67 36.09 9.53 36.31C25.46 40.39 41.39 44.46 57.33 48.53C59.11 48.99 60.89 49.44 62.7 49.89L63.12 50C63.05 49.74 62.98 49.49 62.91 49.24C62.28 46.99 61.64 44.87 61.12 42.67C60.38 39.61 58.61 37.82 55.51 37Z" fill="#FFFFFF" fill-opacity="1.000000" fill-rule="nonzero"/>
			<path id="path" d="M9.92 16.35C10.87 16.61 11.81 16.88 12.76 17.1C24.24 19.8 35.72 22.49 47.19 25.18L47.33 25.21C49.01 25.61 50.86 26.04 52.28 27.48L52.47 27.27C53.55 26.04 54.57 24.89 55.57 23.72C55.85 23.35 56.09 22.96 56.29 22.54C57.19 20.82 57.38 19.15 56.84 17.71C56.3 16.28 55.07 15.18 53.28 14.54C52.62 14.32 51.96 14.14 51.28 13.99L51.01 13.93C38.4 10.96 25.79 8 13.18 5.04C10.21 4.34 7.26 3.65 4.23 2.95L2.17 2.48C2.3 2.91 2.42 3.34 2.54 3.79C3.28 6.41 3.99 8.88 4.75 11.35C5.58 13.97 7.26 15.61 9.92 16.35Z" fill="#FFFFFF" fill-opacity="1.000000" fill-rule="nonzero"/>
			<path id="path" d="M42.09 0.63C42.32 2.23 42.47 3.29 42.74 3.61C43.02 3.93 44.01 4.17 45.41 4.51L53.74 6.55L55.19 6.88C55.21 6.87 55.31 6.86 55.33 6.84C55.33 6.82 55.37 6.72 55.37 6.7L53.93 0.14L46.2 0.05L44.2 0.05L43.69 0.03C43.15 -0.01 42.61 0 42.08 0.05C42.06 0.23 42.07 0.45 42.09 0.63Z" fill="#FFFFFF" fill-opacity="1.000000" fill-rule="nonzero"/>
			<path id="path" d="M79.54 50L79.54 4.68C79.54 3.44 80.01 2.25 80.86 1.37C81.71 0.5 82.85 0 84.05 0L110.48 0L110.48 50L101.2 50L101.2 8.84L88.83 8.84L88.83 50L79.54 50Z" fill="#FFFFFF" fill-opacity="1.000000" fill-rule="nonzero"/>
			<path id="path" d="M143.21 50L120.74 50L120.74 4.68C120.74 3.44 121.22 2.25 122.06 1.37C122.91 0.5 124.06 0 125.25 0L143.21 0L143.21 8.69L130.02 8.69L130.02 19.68L142.29 19.68L142.29 28.36L130.02 28.36L130.02 41.25L143.21 41.25L143.21 50Z" fill="#FFFFFF" fill-opacity="1.000000" fill-rule="nonzero"/>
			<path id="path" d="M167.67 50L158.39 50L158.39 8.84L148.48 8.84L148.48 4.68C148.48 4.06 148.59 3.45 148.82 2.89C149.05 2.32 149.38 1.81 149.8 1.37C150.22 0.94 150.72 0.59 151.26 0.36C151.81 0.12 152.4 0 152.99 0L177.59 0L177.59 8.84L167.67 8.84L167.67 50Z" fill="#FFFFFF" fill-opacity="1.000000" fill-rule="nonzero"/>
			<path id="path" d="M197.3 0C202.23 0 205.87 1.39 208.22 4.17C210.57 6.95 211.74 10.77 211.74 15.63C211.76 18.41 211.29 21.18 210.36 23.79C209.49 26.28 207.89 28.42 205.78 29.91C203.64 31.46 200.72 32.23 197.01 32.23L193.8 32.23L193.8 50L184.52 50L184.52 4.68C184.52 3.44 185 2.25 185.84 1.37C186.69 0.5 187.84 0 189.03 0L197.3 0ZM197.01 8.69L193.8 8.69L193.8 23.53L196.15 23.53C197.29 23.55 198.41 23.29 199.42 22.76C200.4 22.21 201.19 21.35 201.65 20.3C202.19 19.18 202.46 17.74 202.46 15.96C202.46 13.49 202.01 11.66 201.11 10.46C200.21 9.27 198.86 8.68 197.01 8.69Z" fill="#FFFFFF" fill-opacity="1.000000" fill-rule="nonzero"/>
			<path id="path" d="M239.92 34.94C239.01 37.76 237.86 40.49 236.47 43.09C235.36 45.2 233.75 46.97 231.78 48.23C229.89 49.41 227.41 50 224.32 50C222.17 49.95 220.05 49.61 217.99 48.96L217.99 39.71C218.92 40.18 219.91 40.51 220.93 40.69C221.9 40.87 222.89 40.96 223.87 40.97C224.84 41 225.8 40.76 226.64 40.28C227.39 39.82 228.03 39.19 228.51 38.45C229.02 37.64 229.42 36.77 229.69 35.86L218.59 6.27C218.33 5.58 218.24 4.82 218.32 4.08C218.41 3.34 218.66 2.63 219.07 2.01C219.48 1.39 220.03 0.89 220.67 0.54C221.31 0.19 222.02 0.01 222.74 0L226.01 0L232.17 18.72C232.63 20.06 233.02 21.37 233.36 22.65C233.7 23.93 233.98 25.22 234.21 26.52L234.49 26.52C234.75 25.28 235.06 23.97 235.43 22.59C235.79 21.22 236.15 19.88 236.52 18.59L242.06 0L251.66 0L239.92 34.94Z" fill="#FFFFFF" fill-opacity="1.000000" fill-rule="nonzero"/>
			<path id="path" d="M272.88 8.59C271.6 8.57 270.34 8.97 269.29 9.74C268.15 10.61 267.22 11.74 266.58 13.05C265.77 14.69 265.21 16.44 264.91 18.26C264.52 20.53 264.34 22.83 264.35 25.13C264.35 28.58 264.67 31.52 265.3 33.95C265.94 36.38 266.9 38.24 268.2 39.52C269.5 40.79 271.16 41.43 273.16 41.43C274.76 41.43 276.34 41.2 277.87 40.75C279.53 40.25 281.14 39.61 282.69 38.84L282.69 47.47C281.12 48.31 279.45 48.95 277.73 49.38C275.94 49.8 274.11 50.01 272.27 49.99C268.29 49.99 265.04 48.96 262.51 46.89C259.99 44.83 258.12 41.93 256.91 38.18C255.7 34.43 255.1 30.07 255.1 25.09C255.07 21.68 255.46 18.28 256.27 14.97C256.95 12.13 258.12 9.44 259.73 7.04C261.17 4.87 263.09 3.09 265.33 1.84C267.68 0.58 270.29 -0.05 272.94 0C274.93 0.03 276.91 0.34 278.82 0.92C280.72 1.46 282.54 2.3 284.2 3.41L281.35 11.79C280.01 10.95 278.63 10.2 277.2 9.54C275.84 8.91 274.37 8.59 272.88 8.59Z" fill="#FFFFFF" fill-opacity="1.000000" fill-rule="nonzero"/>
		</g>
	</g>
</svg>
